<?xml version="1.0" encoding="UTF-8"?>
<!DOCTYPE svg PUBLIC "-//W3C//DTD SVG 1.1//EN" "http://www.w3.org/Graphics/SVG/1.1/DTD/svg11.dtd">
<!-- Creator: CorelDRAW 2017 -->
<svg xmlns="http://www.w3.org/2000/svg" xml:space="preserve" width="42.2691mm" height="16.4928mm" version="1.1" style="shape-rendering:geometricPrecision; text-rendering:geometricPrecision; image-rendering:optimizeQuality; fill-rule:evenodd; clip-rule:evenodd"
viewBox="0 0 1086.54 423.95"
 xmlns:xlink="http://www.w3.org/1999/xlink">
 <defs>
  <style type="text/css">
   <![CDATA[
    .fil0 {fill:white;fill-rule:nonzero}
   ]]>
  </style>
 </defs>
 <g id="Layer_x0020_1">
  <metadata id="CorelCorpID_0Corel-Layer"/>
  <path class="fil0" d="M549.33 31.39c-16.03,0 -28.34,12.54 -28.66,29.19 -0.35,18.3 13.78,34.77 31.48,36.74 1.15,0.12 2.29,0.18 3.41,0.18 16.03,0 28.35,-12.56 28.66,-29.18 0.34,-18.31 -13.78,-34.78 -31.48,-36.74 -1.14,-0.13 -2.29,-0.2 -3.41,-0.2zm324.96 392.56c-18.11,0 -42.85,-2.67 -57.91,-15.44 -26.89,-22.82 -21.36,-70.12 -21.09,-72.1 3.8,-30.44 20.32,-70.24 77.25,-87.15 25.87,-7.67 55.51,-9.19 75.56,-9.67l0.01 0c2.48,0 11.72,-0.24 12.94,-4.04 1.21,-3.75 -6.85,-10.34 -12,-13.81 -15.6,-10.65 -53.88,-28.72 -138.96,-28.72 -0.32,0 -8.15,-0.04 -11.6,-0.04 -36.2,0 -83.86,6.37 -108.88,21.46 -5.79,3.49 -9.32,7.4 -9.8,12.47 -0.8,8.6 7.21,15.4 8.15,16.14l0.24 0.19c7.75,5.87 16.31,10.55 21.69,13.19l2.31 1.13c13.41,6.48 38.36,18.57 49.61,43.81 6.14,13.79 8.76,28.58 7.56,42.75 -8.73,78.78 -97.95,79.7 -101.75,79.7l-0.3 0c-36.61,0 -63.44,-14.03 -79.5,-25.81 -0.27,-0.2 -24.97,-15.34 -34.82,-45.54 -0.28,-0.83 -2,-6.22 -2.25,-7.24 -1.05,-4.48 -3.66,-14.63 -5.98,-14.9 -3.8,-0.43 -9.96,12.25 -11.88,15.85 -4.25,7.66 -9.4,16.88 -11.21,19.49 -9.73,16.05 -35.13,58.11 -73.55,58.13 -9.87,0 -20.08,-2.85 -30.38,-8.46 -24.72,-13.46 -31.92,-33.97 -37.71,-50.45 -1.56,-4.42 -2.84,-9.44 -4.33,-13.98 -6.13,-18.69 -7.48,-19.22 -21.62,-6.48 -13.47,12.17 -26.52,24.08 -37.9,32.98 -18.15,14.25 -54.65,38.91 -95.14,44.18 -10.23,1.33 -20.17,2.23 -29.5,2.23 -37.66,0 -65.5,-10.82 -82.82,-31.7 -13.69,-16.51 -24.54,-37.11 -31.36,-59.59 -4.14,-13.66 -5.38,-11.75 -16.86,-14.06 -13.78,-2.79 -23.96,-4.29 -40.02,-7.96 -6.75,-1.52 -12.54,-5.61 -16.28,-11.62 -3.78,-6.02 -5.07,-13.22 -3.65,-20.25 2.5,-12.39 13.1,-21.38 25.21,-21.38 1.79,0 3.59,0.19 5.35,0.59 2.6,0.57 4.97,1.1 7.17,1.59 6.15,1.42 18.15,3.82 22.19,4.39 0.5,0.08 1.89,0.23 2.3,0.26 8.4,0.4 8.5,-0.41 11.23,-10.59 0.31,-1.14 0.59,-2.52 0.94,-3.9 12.11,-48.1 46.38,-84.85 93.44,-102.7 11.37,-4.31 29.88,-8 50.37,-8 18.1,0 42.66,3.2 57.73,15.98 26.1,22.13 26.48,54.37 24.37,71.82 -2.38,19.72 -15.03,67.7 -80.5,87.12 -20.2,5.99 -43.92,8.99 -76.9,9.69 -4.44,0.05 -9.29,-0.37 -10.74,2.48 -2.12,4.15 2.5,10.61 2.82,11.11 7.03,12.27 24.26,33.07 59.53,33.07 6.28,0 12.95,-0.75 19.84,-2.03 31.92,-5.88 59.33,-22.86 81.53,-40.25 17,-13.33 38.21,-34.15 47.87,-44.96 0.6,-0.68 3.17,-3.2 5.12,-7.75 0.98,-2.29 1.81,-5.1 2.18,-8.44 0.39,-3.34 0.32,-7.24 -0.52,-11.7 -0.5,-2.58 -8.36,-52.13 -8.86,-56.06 -4.49,-35.48 -5.76,-64.42 -5.14,-82.73 0.01,-0.99 0.78,-92.57 56.16,-113.46 0.56,-0.21 8.26,-3.03 20.08,-2.78 19.79,0.43 37.58,7.52 48.83,20.61 25.2,29.36 24.28,63.12 20.68,89.27 -8.69,62.89 -30.69,119.13 -65.35,167.17 -6.59,8.13 -4.3,17.02 -3.84,18.52 4.12,15.93 9.12,34.44 14.86,50.77 0.23,0.7 6.48,19.31 19.79,19.8 11.25,0.42 31.41,-31.79 31.41,-31.79 0.82,-1.39 47.57,-69.81 52.6,-136.41 0.03,-0.77 0.99,-12.17 -0.57,-27.24 -0.04,-0.34 -2.04,-15.51 5.48,-24.57 3.84,-4.65 9.7,-6.99 17.42,-6.99 26.22,0 28.97,30.98 29.06,32.29 0.22,2.62 0.37,5.2 0.46,7.78 0.73,9.37 7.23,90.98 11.28,124.56 0.06,0.66 8.05,71.34 63.92,71.46 0.52,0.04 2.43,0.16 5.25,0.16 33.24,0 53.15,-13.62 53.31,-36.45 0.43,-3.29 0.34,-17.99 -29.92,-33.77 -9.18,-4.52 -28.89,-16.51 -37.85,-24.39 -0.41,-0.36 -1.69,-1.44 -1.69,-1.44 -36.67,-30.75 -25.03,-63.94 -20.58,-73.39 14.98,-31.83 51.46,-52.62 108.47,-61.74 27.09,-4.34 52.3,-4.98 64.93,-4.98 4.38,0 7.23,-0.13 8.47,-0.08 155.79,0.1 190.83,56.43 196.24,67.68 4.01,8.07 7.24,16.51 9.87,25.05 1.89,6.11 2.03,8.69 11.28,9.06 4.62,0.19 8.22,0.7 11.42,0.93 8.52,0.62 13.65,0.98 27.98,3.95 6.51,1.35 12.12,5.36 15.82,11.29 3.82,6.13 5.12,13.73 3.58,20.86 -2.63,12.24 -13.28,20.78 -25.9,20.78 -1.68,0 -3.4,-0.15 -5.09,-0.46 -9.16,-1.69 -12.9,-2.03 -17.61,-2.47 -1.31,-0.12 -2.68,-0.24 -4.29,-0.41 -0.65,-0.08 -1.28,-0.1 -1.86,-0.12 -9.24,-0.08 -10.05,1.8 -11.22,8.97 -1.45,8.69 -3.97,17.18 -7.04,25.34 -15.11,40.15 -47.28,71.94 -88.23,87.19 -9.53,3.55 -26.72,6.91 -50.38,7.14zm80.43 -130.48c-53.82,1.22 -81.79,8 -96.44,23.41 -6.6,6.96 -10.48,15.63 -11.85,26.49 -0.05,0.39 -1.34,10.32 4.72,18.06 4.05,5.16 10.22,8.02 18.32,8.51 0.04,0 0.83,0.05 2.25,0.05 11.74,0 71.36,-2.89 93.16,-60.06 0.31,-0.89 4,-9.12 0.77,-13.91 -1.24,-1.85 -5.25,-2.59 -10.07,-2.59 -0.28,0 -0.58,0 -0.87,0.03zm-738.14 -103.04c-16.17,0 -30.61,6.37 -31.21,6.64 -28.03,11.73 -47.87,31.16 -57.36,56.15 -0.3,0.87 -4.61,10.51 -1.81,14.06 2.04,2.6 6.21,2.36 10.92,2.36l0.52 0c48.07,-1.07 83.39,-5.94 99.5,-26.33 0.5,-0.54 14.42,-16.85 12.81,-31.68 -0.63,-5.78 -3.43,-10.54 -8.32,-14.11 -6.82,-4.73 -15.2,-7.09 -25.04,-7.09zm171.72 -73.16c-0.09,16.09 1.26,40.39 3.94,65.24 1.37,12.56 3.13,20.57 3.95,24.05 0.4,1.75 1.03,1.9 1.03,1.9 0.58,-0.04 0.8,-0.23 1.66,-1.11 3.64,-3.81 8.4,-16.48 11.25,-23.71 10.37,-25.22 17.66,-52.63 21.63,-81.44 0.54,-3.51 4.97,-35.15 -4.5,-48.18 -2.41,-3.35 -5.52,-6.58 -9.23,-7.08 -0.45,-0.07 -1.35,-0.23 -2.59,-0.23 -7.28,0 -24.86,5.39 -26.23,46.51 0,0 -0.89,19.11 -0.91,24.04z"/>
 </g>
</svg>
