<?xml version="1.0" encoding="utf-8"?>
<!-- Generator: Adobe Illustrator 24.1.2, SVG Export Plug-In . SVG Version: 6.00 Build 0)  -->
<svg version="1.1" id="Layer_1" xmlns="http://www.w3.org/2000/svg" xmlns:xlink="http://www.w3.org/1999/xlink" x="0px" y="0px"
	 viewBox="0 0 800 206" style="enable-background:new 0 0 800 206;" xml:space="preserve">
<style type="text/css">
	.st0{fill:#FFFFFF;}
</style>
<g>
	<path class="st0" d="M521.7,87.4c0,2.3-1.9,4-4.2,4h-22.2c-2.5,0-4.7-2-4.7-4.5V39.4c0-2.2,1.9-4.1,4.3-4.1c2.4,0,4.3,1.9,4.3,4.1
		v44.1h18.2C519.8,83.4,521.7,85.2,521.7,87.4 M460.7,48.2c-2,8.3-4.5,15.9-6.8,23.9h13.6C465,64.2,462.3,56.4,460.7,48.2z
		 M451.4,79.7l-2.9,9.4c-0.5,1.9-2.7,3-4.1,3c-2.4,0-4.5-1.6-4.5-4c0-0.4,0.1-1.2,0.2-1.5L455.4,40c0.9-2.7,2.2-4.7,5.3-4.7
		c3.1,0,4.3,2,5.3,4.7l15.3,46.6c0.2,0.3,0.2,1.1,0.2,1.5c0,2.4-2,4-4.5,4c-2.8,0-3.8-2-4.8-4.8l-2.5-7.6H451.4z M424.2,75.9
		c0-4.2-2.2-5.8-3.8-6.7c-7.8-3.8-21.1-4-21.1-18.2c0-9.8,6.6-15.8,17-15.8c4.2,0,14.6,1,14.6,6.2c0,2-1.6,3.9-4.3,3.9
		c-2.7,0-4.6-2.1-9.8-2.1c-4.5,0-8.6,1.6-8.6,7.4c0,4.3,2.4,5.8,3.9,6.6c7.9,4.1,21.1,4.1,21.1,18.1c0,10.7-7.9,16.7-18.4,16.7
		c-5.4,0-15.6-1.7-15.6-6.6c0-2,1.7-4,4-4c2.4,0,5.4,2.6,11.7,2.6C421.1,84.1,424.2,81.1,424.2,75.9z M364,44.1v19.6h7.9
		c6.7,0,10.2-3.1,10.2-9.8c0-4.9-1.9-9.8-10.2-9.8H364z M371.8,71.7H364v16.2c0,2.2-2,4.2-4.3,4.2c-2.3,0-4.3-2-4.3-4.2V40.7
		c0-2.5,2.3-4.7,4.9-4.7h11.6c13.9,0,18.9,8.6,18.9,18C390.7,65.4,383.3,71.7,371.8,71.7z M325.3,48.2c-2,8.3-4.5,15.9-6.8,23.9
		h13.6C329.7,64.2,327,56.4,325.3,48.2z M316.1,79.7l-2.9,9.4c-0.5,1.9-2.7,3-4.1,3c-2.4,0-4.5-1.6-4.5-4c0-0.4,0.1-1.2,0.2-1.5
		L320.1,40c0.9-2.7,2.2-4.7,5.3-4.7c3.1,0,4.3,2,5.3,4.7l15.3,46.6c0.2,0.3,0.2,1.1,0.2,1.5c0,2.4-2,4-4.5,4c-2.8,0-3.8-2-4.8-4.8
		l-2.5-7.6H316.1z M278.4,48.2c-2,8.3-4.5,15.9-6.8,23.9h13.6C282.7,64.2,280,56.4,278.4,48.2z M269.1,79.7l-2.9,9.4
		c-0.5,1.9-2.7,3-4.1,3c-2.4,0-4.5-1.6-4.5-4c0-0.4,0.1-1.2,0.2-1.5L273.1,40c0.9-2.7,2.2-4.7,5.3-4.7c3.1,0,4.3,2,5.3,4.7
		l15.3,46.6c0.2,0.3,0.2,1.1,0.2,1.5c0,2.4-2,4-4.5,4c-2.8,0-3.8-2-4.8-4.8l-2.5-7.6H269.1z M248.3,88c0,2.2-2,4.2-4.3,4.2
		c-2.3,0-4.3-2-4.3-4.2V67.7h-19.1V88c0,2.2-2,4.2-4.3,4.2c-2.4,0-4.3-2-4.3-4.2V39.4c0-2.2,1.9-4.1,4.3-4.1c2.4,0,4.3,1.9,4.3,4.1
		v20.3h19.1V39.4c0-2.2,2-4.1,4.3-4.1c2.3,0,4.3,1.9,4.3,4.1V88z M791,154.5c0-4.2-2.2-5.8-3.9-6.7c-7.8-3.8-21.1-4-21.1-18.2
		c0-9.8,6.6-15.8,17-15.8c4.2,0,14.6,1,14.6,6.2c0,2-1.6,3.9-4.3,3.9c-2.7,0-4.6-2.1-9.8-2.1c-4.5,0-8.6,1.6-8.6,7.4
		c0,4.3,2.4,5.8,3.9,6.6c7.9,4.1,21.1,4.1,21.1,18.1c0,10.7-7.9,16.7-18.4,16.7c-5.4,0-15.6-1.7-15.6-6.6c0-2,1.7-4,4-4
		c2.4,0,5.4,2.6,11.7,2.6C787.9,162.6,791,159.6,791,154.5z M756.5,151.5c0,11.2-6.9,19.2-18.5,19.2c-11.9,0-18.5-8.2-18.5-19.2
		v-33.4c0-2.4,1.9-4.2,4.4-4.2c2.3,0,4.2,1.9,4.2,4.2v33.4c0,6.6,3.1,11.2,9.9,11.2c6.7,0,9.8-4.6,9.8-11.2v-33.4
		c0-2.3,1.8-4.2,4.2-4.2c2.5,0,4.5,2,4.5,4.2V151.5z M703.6,168.8l-16.1-22.6l-2.7,3.2v17.1c0,2.2-2,4.1-4.3,4.1
		c-2.4,0-4.3-1.9-4.3-4.1v-48.6c0-2.2,1.9-4.1,4.3-4.1c2.4,0,4.3,1.9,4.3,4.1v18.9l17.7-21.1c0.8-0.9,2.2-1.9,3.7-1.9
		c1.7,0,4.1,1.6,4.1,4c0,0.9-0.2,1.8-1,2.8L693,139.8c5.9,8.2,11.8,16.3,17.8,24.5c0.5,0.8,0.6,1.4,0.6,2.1c0,1.9-1.3,4.2-4.2,4.2
		C705.7,170.6,704.5,170.1,703.6,168.8z M656.7,154.5c0-4.2-2.2-5.8-3.8-6.7c-7.8-3.8-21.1-4-21.1-18.2c0-9.8,6.6-15.8,17-15.8
		c4.2,0,14.6,1,14.6,6.2c0,2-1.7,3.9-4.3,3.9c-2.7,0-4.6-2.1-9.8-2.1c-4.5,0-8.6,1.6-8.6,7.4c0,4.3,2.4,5.8,3.9,6.6
		c7.9,4.1,21.1,4.1,21.1,18.1c0,10.7-7.9,16.7-18.4,16.7c-5.4,0-15.6-1.7-15.6-6.6c0-2,1.7-4,4-4c2.4,0,5.4,2.6,11.7,2.6
		C653.6,162.6,656.7,159.6,656.7,154.5z M623.3,165.8c0,2.4-2,4.2-4.3,4.2h-20.8c-3.2,0-6.1-1.1-6.1-4.6v-46.1c0-2.3,2-4.6,4.9-4.6
		h21.3c2.4,0,4.3,1.9,4.3,4.2c0,2.3-2,3.9-4.3,3.9h-17.5v15.5h16c2.1,0,4.2,1.7,4.2,4c0,2.3-1.9,4.1-4.2,4.1h-16v15.7H619
		C621.3,161.9,623.3,163.7,623.3,165.8z M575.4,168.8l-16.1-22.6l-2.7,3.2v17.1c0,2.2-2,4.1-4.3,4.1c-2.4,0-4.3-1.9-4.3-4.1v-48.6
		c0-2.2,1.9-4.1,4.3-4.1c2.4,0,4.3,1.9,4.3,4.1v18.9l17.7-21.1c0.8-0.9,2.2-1.9,3.7-1.9c1.7,0,4.1,1.6,4.1,4c0,0.9-0.2,1.8-1,2.8
		l-16.3,19.2c5.9,8.2,11.8,16.3,17.8,24.5c0.5,0.8,0.6,1.4,0.6,2.1c0,1.9-1.3,4.2-4.2,4.2C577.5,170.6,576.3,170.1,575.4,168.8z
		 M526.3,166.6v-48.7c0-2.2,1.9-4.1,4.3-4.1c2.4,0,4.3,1.9,4.3,4.1v48.7c0,2.1-2,4.1-4.3,4.1C528.2,170.7,526.3,168.8,526.3,166.6z
		 M506.6,130.7c0-3.9-1.9-8.1-10-8.1h-9.5v16h10C503.2,138.6,506.6,135.8,506.6,130.7z M515.2,130.7c0,8.1-4.5,13.2-11.5,15
		c3.8,6.2,7.8,12.3,11.6,18.5c0.4,0.4,0.6,1.7,0.6,2.1c0,2.4-2.4,4.2-4.5,4.2c-1.6,0-2.8-0.6-3.6-1.9l-13.6-22.2h-7.1v20
		c0,2.2-2,4.2-4.4,4.2c-2.3,0-4.2-1.9-4.2-4.2v-47.2c0-2.5,2.2-4.7,4.8-4.7h13.7C510.7,114.5,515.2,122.7,515.2,130.7z M466.1,151.5
		c0,11.2-6.9,19.2-18.5,19.2c-11.9,0-18.5-8.2-18.5-19.2v-33.4c0-2.4,1.9-4.2,4.4-4.2c2.3,0,4.2,1.9,4.2,4.2v33.4
		c0,6.6,3.1,11.2,9.9,11.2c6.7,0,9.8-4.6,9.8-11.2v-33.4c0-2.3,1.8-4.2,4.2-4.2c2.5,0,4.5,2,4.5,4.2V151.5z M417.3,151.5
		c0,11.2-6.9,19.2-18.5,19.2c-11.9,0-18.5-8.2-18.5-19.2v-33.4c0-2.4,1.9-4.2,4.4-4.2c2.3,0,4.2,1.9,4.2,4.2v33.4
		c0,6.6,3.1,11.2,9.9,11.2c6.7,0,9.8-4.6,9.8-11.2v-33.4c0-2.3,1.8-4.2,4.2-4.2c2.5,0,4.5,2,4.5,4.2V151.5z M349.1,166.6v-44h-9.5
		c-2.5,0-4.3-1.9-4.3-4c0-1.8,1.9-4.1,4.3-4.1h27.7c2.2,0,4.4,1.8,4.4,4.1c0,2.1-2,4-4.4,4h-9.5v44c0,2.1-2,4.1-4.3,4.1
		C351,170.7,349.1,168.8,349.1,166.6z M335.6,165.9c0,2.3-1.9,4-4.2,4h-22.2c-2.5,0-4.7-2-4.7-4.5v-47.5c0-2.2,1.9-4.1,4.3-4.1
		c2.4,0,4.3,1.9,4.3,4.1V162h18.2C333.7,162,335.6,163.7,335.6,165.9z M292.3,151.5c0,11.2-6.9,19.2-18.5,19.2
		c-11.9,0-18.5-8.2-18.5-19.2v-33.4c0-2.4,1.9-4.2,4.4-4.2c2.3,0,4.2,1.9,4.2,4.2v33.4c0,6.6,3.1,11.2,9.9,11.2
		c6.7,0,9.8-4.6,9.8-11.2v-33.4c0-2.3,1.8-4.2,4.2-4.2c2.5,0,4.5,2,4.5,4.2V151.5z M239.4,168.8l-16.1-22.6l-2.7,3.2v17.1
		c0,2.2-2,4.1-4.3,4.1c-2.4,0-4.3-1.9-4.3-4.1v-48.6c0-2.2,1.9-4.1,4.3-4.1c2.4,0,4.3,1.9,4.3,4.1v18.9l17.7-21.1
		c0.8-0.9,2.2-1.9,3.7-1.9c1.7,0,4.1,1.6,4.1,4c0,0.9-0.2,1.8-1,2.8l-16.3,19.2c5.9,8.2,11.8,16.3,17.8,24.5
		c0.5,0.8,0.6,1.4,0.6,2.1c0,1.9-1.3,4.2-4.2,4.2C241.5,170.6,240.3,170.1,239.4,168.8z M565.4,72.9c0,11.2-6.9,19.2-18.5,19.2
		c-11.9,0-18.5-8.2-18.5-19.2V39.5c0-2.4,1.9-4.2,4.4-4.2c2.3,0,4.2,1.9,4.2,4.2v33.4c0,6.6,3.1,11.2,9.9,11.2
		c6.7,0,9.8-4.6,9.8-11.2V39.5c0-2.3,1.8-4.2,4.2-4.2c2.5,0,4.5,2,4.5,4.2V72.9z"/>
	<path class="st0" d="M76.6,60.6l37.8,37.8c2.6,2.4,3.7,5.9,3.7,9.5l-0.3,84.8c0,8.6-6.6,13-13,13c-6.4,0-13-4.3-13-13l0.3-79.8
		L52.8,73.5c-4.2-4.2-5.3-9.8-3.1-15.5L70,8.5c3.3-8,11-9.5,16.9-7c5.9,2.4,10.3,8.9,7,16.9L76.6,60.6 M25.9,66.3l43.1,43.2
		c2.7,2.9,3.9,5.9,3.9,10l-0.3,73.1c0,8.6-6.6,13-13,13c-6.4,0-13-4.3-13-13l0.3-68.4L4.5,81.5C1.6,78.8,0,74.6,0,71.2V13.5
		c0-8.6,6.6-13,13-13c6.4,0,13,4.3,13,13V66.3z M25.9,192.5c0,8.6-6.6,13-13,13c-6.4,0-13-4.3-13-13v-61.3c0-8.6,6.6-13,13-13
		c6.4,0,13,4.3,13,13V192.5z M127.9,55.6l31.6,31.4c2.5,2.5,3.9,6.2,3.9,9.7l-0.3,96.1c0,8.6-6.6,13-13,13c-6.4,0-13-4.3-13-13
		l0.3-91.1L101,65.3c-5.7-5.7-5.4-13.9-0.1-19.2l40.9-41.7c6-6.2,13.7-4.7,18.3-0.2c4.6,4.5,6.2,12.2,0.2,18.3L127.9,55.6z"/>
</g>
</svg>
