<?xml version="1.0" encoding="utf-8"?>
<!-- Generator: Adobe Illustrator 24.1.2, SVG Export Plug-In . SVG Version: 6.00 Build 0)  -->
<svg version="1.1" id="Layer_1" xmlns="http://www.w3.org/2000/svg" xmlns:xlink="http://www.w3.org/1999/xlink" x="0px" y="0px"
	 viewBox="0 0 400 150" style="enable-background:new 0 0 400 150;" xml:space="preserve">
<style type="text/css">
	.st0{fill:#FFFFFF;}
</style>
<g>
	<g>
		<path class="st0" d="M299.3,140c-0.4-1.6-0.9-3.1-1.4-4.6c-0.4-1.5-1-3-1.1-4.6c-0.1-1.2,0.2-2.3,1-3.2c0.4-0.5,0.9-1,1.3-1.5
			c1.6-2.1,2-4.7,2.3-7.2c0.1-1,0-2.1,0-3.2c0-0.2,0.1-0.6-0.2-0.6c-0.2-0.1-0.4,0.2-0.5,0.4c-0.4,0.6-0.9,1.2-1.4,1.8
			c-1.3,1.3-2.6,2.7-3.8,4c-1,1.1-2,2.1-3.1,3.1c-1,0.8-2,1.7-2.6,2.9c-1,1.6-1.9,3.2-2.9,4.8c-1,1.6-1.5,3.3-1.5,5.2
			c-0.1,1.5,0,2.9,0.3,4.3c0.1,0.3,0.1,0.5,0.2,0.8c4.9,2.6,10.3,4.5,16.2,5.7c-0.4-1.2-0.9-2.3-1.3-3.5
			C300.2,143,299.7,141.5,299.3,140"/>
		<path class="st0" d="M337.9,136.2c-0.4-1.6-0.6-3.2-0.8-4.8c-0.4-2.4-0.8-4.9-0.9-7.4c-0.2-2.6-0.6-5.2-0.7-7.8
			c0-1.2-0.3-2.4-0.4-3.6c-0.1-1.1-0.5-1.4-1.2-1.1c-1.4,0.6-2.9,0.7-4.4,1.1c-0.7,0.2-1.4,0.2-2.1,0.4c-1.9,0.5-3.9,0.5-5.8,0.7
			c-1.6,0.2-3.2,0.1-4.8,0.1c-0.4,0-0.7,0.1-0.8,0.5c-0.4,1.8-1.6,3.1-2.7,4.4c-0.8,1-1.6,2-2.4,3c-1.2,1.6-2.3,3.3-3.4,5
			c-0.8,1.3-1.8,2.5-2.3,4c-0.2,0.7-0.3,1.4-0.5,2.1c-0.3,1.3-0.3,2.6,0.1,3.9c0.3,0.9,0.6,1.8,0.8,2.6c0.4,1.8,1.1,3.4,1.6,5.1
			c0.1,0.2,0.2,0.4,0.4,0.4c0.6,0.2,1.1,0.6,1.7,0.8c1.1,0.4,2,1.1,2.6,2.2c0.2,0.4,0.2,0.8,0.1,1.2c0,0,0.1,0,0.1,0
			c9,0.4,18-1.1,26.6-4c0-1.9-0.1-3.8-0.2-5.6C338.2,138.4,338.2,137.2,337.9,136.2"/>
		<path class="st0" d="M342.6,0.9c-39-1.6-77.5,30.4-86,71.3c-5.9,28.4,4.2,53.6,23.9,66.9c-0.1-0.6-0.1-1.2-0.2-1.8
			c-0.4-1.9-0.3-3.9-0.3-5.9c0-0.5,0.1-1,0.3-1.5c0.4-1,0.9-1.8,1.5-2.7c0.7-1.1,1.3-2.3,2.1-3.4c1.1-1.5,1.8-3.2,2.4-4.9
			c0.4-1.1,0.7-2.3,1-3.5c0.4-1.4,0.6-2.8,0.4-4.2c-0.1-1.4-0.2-2.7-0.4-4.1c0,0-0.9-4.5-0.9-10.3c-0.7,1.5-1.5,4.1-2.2,7.1
			c-1.5,6.3-2.8,14.2-3.4,16.6c-1,4.4-0.9,4.4-1.9,4.5c-0.4,0.1-0.8-0.5-1-1.4c-0.6-3.1-6.6-10.9,0.4-28c7-17.2,17.6-23.7,30.6-25.3
			c13-1.6,27,0.1,30-5.1c2.5-4.3,5.9-10.2,7.3-12.6c0.3-0.4,0-1.1-0.2-1.6c-1.6-5.4,0.8-13.2,1.7-13.1c0.9,0.1,5.7,7.2,6.1,6.6
			c0.2-0.3,2.9-0.7,5.6-0.7c2.7,0,5.4,0.4,5.6,0.7c0.4,0.6,5.2-6.5,6.1-6.6c0.9-0.1,3.3,7.7,1.7,13.1c-0.1,0.6-0.2,1.1-0.2,1.6
			c0,1,0.2,1.9,0.5,2.7c0.5,1.3,2.1,9.1,1.2,16.9c-0.9,7.8-4.5,11.8-4.9,12.7c-0.4,0.8-0.4,6.6-2.9,11.6c0,0.2-0.1,0.4-0.1,0.7
			c-0.4,1.6-0.8,3.2-1.5,4.7c-0.3,0.7-0.5,1.5-0.9,2.2c-0.4,0.9-0.9,1.8-1.4,2.7c-1,1.7-2.1,3.3-3.4,4.7c-1,1.2-2.1,2.4-2.5,4.1
			c-0.1,0.2-0.1,0.5-0.3,0.7c-0.7,0.6-0.8,1.5-0.9,2.4c-0.1,1.2-0.4,2.4-0.7,3.6c-0.4,1.3-0.4,2.7-0.8,4.1c-0.2,0.7-0.1,1.5-0.3,2.2
			c-0.5,1.7-0.6,3.4-0.7,5.1c-0.2,1.8-0.3,3.5-0.3,5.3c22.2-12.4,39.9-34.9,45.3-61C406.3,36.9,381.6,2.4,342.6,0.9"/>
		<path class="st0" d="M345.8,138c0-2.7,0.1-5.4,0.1-8.1c0-1.6,0.3-3.2,0.4-4.7c0.1-1.7,0.5-3.5,0.7-5.2c0.1-0.5,0.4-1,0.4-1.6
			c0-0.7,0.2-1.4,0.4-2.1c0.4-1.4,0.7-2.8,1.2-4.1c0.2-0.5,0.3-1,0.3-1.8c-0.3,0.5-0.5,0.9-0.7,1.3c-0.6,1-1.1,2.2-1.5,3.3
			c-0.4,1.2-0.9,2.5-1.1,3.8c-0.3,1.6-0.5,3.2-0.7,4.9c-0.2,1.4-0.3,2.7-0.4,4.1c-0.1,2.6-0.3,5.2-0.4,7.8c-0.1,2.4-0.3,4.9,0,7.3
			c0.5-0.2,0.9-0.4,1.4-0.6c-0.1-0.6-0.2-1.2-0.3-1.8C345.5,139.6,345.8,138.8,345.8,138"/>
	</g>
	<g>
		<path class="st0" d="M30.3,20.6c15.4,0,21.4,10.7,21.4,21.7c0,11-7.9,21.7-21.9,21.7H16.2v24.9H0.5V20.6H30.3z M16.2,50h11.6
			c5.8,0,8.2-3.5,8.2-7.6c0-4.2-2.2-7.6-8.2-7.6H16.2V50z"/>
		<path class="st0" d="M86.2,89.6c-14.2,0-26.7-7.3-26.7-22.3V41.6c0-15,13.9-21.7,26.7-21.7c13.1,0,26.7,7.2,26.7,22.2v25.2
			C112.9,82.2,100.5,89.6,86.2,89.6z M76.7,0.8c4.3,0,7.7,3.4,7.7,7.6s-3.5,7.7-7.7,7.7c-4.3,0-7.6-3.5-7.6-7.7S72.4,0.8,76.7,0.8z
			 M97.1,45.1c0-7.8-5.7-10.7-10.9-10.7c-5.2,0-11,2.9-11,10.7v19.3c0,7.8,5.8,10.7,11,10.7c5.2,0,10.9-2.9,10.9-10.7V45.1z
			 M96.4,0.8c4.3,0,7.6,3.4,7.6,7.6s-3.4,7.7-7.6,7.7c-4.3,0-7.7-3.5-7.7-7.7S92.1,0.8,96.4,0.8z"/>
		<path class="st0" d="M137.6,48.2h27.2v14h-27.2v26.7h-15.7V20.6h47.6v14.1h-31.9V48.2z"/>
		<path class="st0" d="M192.8,48.2H220v14h-27.2v26.7H177V20.6h47.6v14.1h-31.9V48.2z"/>
	</g>
	<g>
		<path class="st0" d="M5.4,102.1c2.1,0,3.1,1.8,3.1,3.4s-1.2,3.4-3.2,3.4H2.7v4.1H0.5v-10.9H5.4z M2.7,106.9h2.2
			c1,0,1.5-0.6,1.5-1.4c0-0.8-0.5-1.5-1.5-1.5H2.7V106.9z"/>
		<path class="st0" d="M12.1,102.1V113H9.9v-10.9H12.1z"/>
		<path class="st0" d="M22.6,107.2l-1,2l-1.2,2.3h-1.6l-1.2-2.3l-1.1-2h-0.1v5.8h-2.1v-10.9h2l1.9,3.8l1.3,2.7h0.1l1.3-2.7l1.9-3.8
			h2V113h-2.2L22.6,107.2L22.6,107.2z"/>
		<path class="st0" d="M26.7,102.1h7.5v1.9h-5.3v2.5h4.6v1.9h-4.6v2.6h5.3v1.9h-7.5V102.1z"/>
		<path class="st0" d="M39.9,113h-4.1v-10.9h4.1c2,0,3.9,1.2,3.9,3.5v3.9C43.8,111.8,41.9,113,39.9,113z M41.6,106c0-1.4-1-2-2-2
			h-1.6v7h1.6c0.9,0,2-0.5,2-2V106z"/>
		<path class="st0" d="M51.5,110.7h-3.8L47,113h-2.3l3.8-10.9h2.2l3.8,10.9h-2.3L51.5,110.7z M48.3,108.9h2.6l-0.4-1.4l-0.9-2.9
			h-0.1l-0.8,2.8L48.3,108.9z"/>
		<path class="st0" d="M58.9,104.1v8.9h-2.2v-8.9h-2.9v-2h7.9v2H58.9z"/>
		<path class="st0" d="M62.9,102.1h7.5v1.9h-5.3v2.5h4.6v1.9h-4.6v2.6h5.3v1.9h-7.5V102.1z"/>
		<path class="st0" d="M80.1,113.1c-2.3,0-4.2-1.2-4.2-3.6v-4c0-2.3,2-3.5,4.2-3.5c2.2,0,4.2,1.3,4.2,3.6v3.9
			C84.3,111.9,82.4,113.1,80.1,113.1z M78.6,99.1c0.6,0,1.1,0.5,1.1,1.1c0,0.6-0.5,1.1-1.1,1.1c-0.6,0-1.1-0.5-1.1-1.1
			C77.5,99.6,78,99.1,78.6,99.1z M82.1,106c0-1.4-1-2-2-2c-1,0-2,0.6-2,2v3.2c0,1.4,1,2,2,2c1,0,2-0.5,2-2V106z M81.7,99.1
			c0.6,0,1.1,0.5,1.1,1.1c0,0.6-0.5,1.1-1.1,1.1c-0.6,0-1.1-0.5-1.1-1.1C80.6,99.6,81.1,99.1,81.7,99.1z"/>
		<path class="st0" d="M90.2,113.1c-2.3,0-4.2-1.2-4.2-3.6v-4c0-2.3,2-3.5,4.2-3.5c2.2,0,4.2,1.3,4.2,3.6v3.9
			C94.3,111.9,92.4,113.1,90.2,113.1z M88.6,99.1c0.6,0,1.1,0.5,1.1,1.1c0,0.6-0.5,1.1-1.1,1.1c-0.6,0-1.1-0.5-1.1-1.1
			C87.6,99.6,88.1,99.1,88.6,99.1z M92.2,106c0-1.4-1-2-2-2c-1,0-2,0.6-2,2v3.2c0,1.4,1,2,2,2c1,0,2-0.5,2-2V106z M91.8,99.1
			c0.6,0,1.1,0.5,1.1,1.1c0,0.6-0.5,1.1-1.1,1.1c-0.6,0-1.1-0.5-1.1-1.1C90.7,99.6,91.2,99.1,91.8,99.1z"/>
		<path class="st0" d="M100.2,113h-4.1v-10.9h4.1c2,0,3.9,1.2,3.9,3.5v3.9C104.1,111.8,102.2,113,100.2,113z M101.9,106
			c0-1.4-1-2-2-2h-1.6v7h1.6c0.9,0,2-0.5,2-2V106z"/>
		<path class="st0" d="M105.9,102.1h7.5v1.9H108v2.5h4.6v1.9H108v2.6h5.3v1.9h-7.5V102.1z"/>
		<path class="st0" d="M121.1,106.6h4.6v1.9h-4.6v4.4H119v-10.9h7.5v1.9h-5.3V106.6z"/>
		<path class="st0" d="M130.1,102.1V113h-2.2v-10.9H130.1z"/>
		<path class="st0" d="M132.3,113v-10.9h2.1v8.9h5.4v1.9H132.3z"/>
		<path class="st0" d="M149.1,107.2l-1,2l-1.2,2.3h-1.6l-1.2-2.3l-1.1-2H143v5.8h-2.1v-10.9h2l1.9,3.8l1.3,2.7h0.1l1.3-2.7l1.9-3.8
			h2V113h-2.2L149.1,107.2L149.1,107.2z"/>
		<path class="st0" d="M155.7,102.1V113h-2.2v-10.9H155.7z"/>
		<path class="st0" d="M160.1,106.6h4.6v1.9h-4.6v4.4h-2.2v-10.9h7.5v1.9h-5.3V106.6z"/>
		<path class="st0" d="M166.5,102.1h7.5v1.9h-5.3v2.5h4.6v1.9h-4.6v2.6h5.3v1.9h-7.5V102.1z"/>
		<path class="st0" d="M179.4,113.1c-1.6,0-2.9-0.4-4.3-1.5l1.2-1.6c0.9,0.7,2,1.1,3,1.1c1.4,0,1.9-0.6,1.9-1.3c0-1-1-1.2-2.5-1.6
			c-1.7-0.4-3.2-1.1-3.2-3.1c0-1.9,1.5-3.2,3.7-3.3c1.3,0,2.7,0.2,3.9,1l-0.9,1.7c-1-0.6-1.9-0.8-2.8-0.8c-0.9,0-1.7,0.4-1.7,1.3
			s0.9,1.2,2.4,1.5c2.3,0.5,3.4,1.5,3.4,3.2C183.6,112,181.8,113.1,179.4,113.1z"/>
		<path class="st0" d="M189.4,104.1v8.9h-2.2v-8.9h-2.9v-2h7.9v2H189.4z"/>
		<path class="st0" d="M195.8,102.1V113h-2.2v-10.9H195.8z"/>
		<path class="st0" d="M201.9,109.8l1.1-3.9l1.1-3.8h2.3L203,113h-2.2l-3.5-10.9h2.3l1.2,3.9L201.9,109.8L201.9,109.8z"/>
		<path class="st0" d="M213.1,110.7h-3.8l-0.7,2.2h-2.3l3.8-10.9h2.2l3.8,10.9h-2.3L213.1,110.7z M209.9,108.9h2.6l-0.4-1.4
			l-0.9-2.9h-0.1l-0.8,2.8L209.9,108.9z"/>
		<path class="st0" d="M217.2,113v-10.9h2.1v8.9h5.4v1.9H217.2z"/>
		<path class="st0" d="M5.6,131.9H0.5V121h4.9c2.2,0,3.2,1.4,3.2,2.9c0,0.8-0.4,1.8-1.3,2.2c1,0.5,1.5,1.6,1.5,2.5
			C8.7,130.4,7.7,131.9,5.6,131.9z M4.9,123H2.7v2.4h2.2c0.9,0,1.4-0.5,1.4-1.2C6.3,123.4,5.9,123,4.9,123z M5,127.2H2.7v2.8H5
			c1,0,1.5-0.5,1.5-1.4C6.5,127.8,5.9,127.2,5,127.2z"/>
		<path class="st0" d="M10.4,131.9V121h2.1v8.9h5.4v1.9H10.4z"/>
		<path class="st0" d="M24.9,129.7h-3.8l-0.7,2.2h-2.3l3.8-10.9h2.2l3.8,10.9h-2.3L24.9,129.7z M21.7,127.9h2.6l-0.4-1.4l-0.9-2.9
			H23l-0.8,2.8L21.7,127.9z"/>
		<path class="st0" d="M35.4,123.7c-0.7-0.6-1.5-0.8-2.2-0.8c-1,0-2,0.5-2,2v3.2c0,1.4,1.1,2,2,2c0.7,0,1.5-0.2,2.2-0.8l1,1.7
			c-0.8,0.7-2,1.1-3.3,1.1c-2.1,0-4.1-1.2-4.1-3.5v-4.1c0-2.3,2.1-3.5,4.1-3.5c1.2,0,2.5,0.3,3.3,1.1L35.4,123.7z"/>
		<path class="st0" d="M40.1,125.7c0.6-0.7,1.2-1.4,1.8-2.1L44,121h2.6l-3.6,4.4l3.9,6.5h-2.5l-2.7-4.8c-0.5,0.6-1,1.2-1.5,1.8v3
			h-2.2V121H40L40.1,125.7L40.1,125.7z"/>
		<path class="st0" d="M53.9,125.1v6.8h-2.1V121h2l2.5,3.7l2.1,3.2h0.1V121h2.2v10.9h-2l-2.8-4.1L53.9,125.1L53.9,125.1z"/>
		<path class="st0" d="M64.9,121v10.9h-2.2V121H64.9z"/>
		<path class="st0" d="M71.3,132c-2,0-4.2-1.2-4.2-3.5v-4c0-2.3,2.1-3.6,4.2-3.6c1.2,0,2.5,0.3,3.4,1.1l-1.1,1.7
			c-0.7-0.6-1.5-0.8-2.3-0.8c-1,0-2.1,0.5-2.1,2v3.2c0,1.4,1,2,2,2c0.4,0,0.9-0.1,1.4-0.5v-1.8h-1.6v-1.8h3.7v4.6
			C73.9,131.6,72.4,132,71.3,132z"/>
		<path class="st0" d="M82.8,131.9v-4.5h-4v4.5h-2.2V121h2.2v4.4h4V121H85v10.9H82.8z"/>
		<path class="st0" d="M91.1,123v8.9H89V123h-2.9v-2H94v2H91.1z"/>
		<path class="st0" d="M99,132c-1.6,0-2.9-0.4-4.3-1.5l1.2-1.6c0.9,0.7,2,1.1,3,1.1c1.4,0,1.9-0.6,1.9-1.3c0-1-1-1.2-2.5-1.6
			c-1.7-0.4-3.2-1.1-3.2-3.1c0-1.9,1.5-3.2,3.7-3.3c1.3,0,2.7,0.2,3.9,1l-0.9,1.7c-1-0.6-1.9-0.8-2.8-0.8c-0.9,0-1.7,0.4-1.7,1.3
			s0.9,1.2,2.4,1.5c2.3,0.5,3.4,1.5,3.4,3.2C103.1,130.9,101.3,132,99,132z"/>
		<path class="st0" d="M110.8,125.6h4.6v1.9h-4.6v4.4h-2.2V121h7.5v1.9h-5.3V125.6z"/>
		<path class="st0" d="M119.7,121v10.9h-2.2V121H119.7z"/>
		<path class="st0" d="M121.9,131.9V121h2.1v8.9h5.4v1.9H121.9z"/>
		<path class="st0" d="M138.8,126.1l-1,2l-1.2,2.3H135l-1.2-2.3l-1.1-2h-0.1v5.8h-2.1V121h2l1.9,3.8l1.3,2.7h0.1l1.3-2.7l1.9-3.8h2
			v10.9h-2.2L138.8,126.1L138.8,126.1z"/>
		<path class="st0" d="M149,125.6h4.6v1.9H149v4.4h-2.2V121h7.5v1.9H149V125.6z"/>
		<path class="st0" d="M155.5,121h7.5v1.9h-5.3v2.5h4.6v1.9h-4.6v2.6h5.3v1.9h-7.5V121z"/>
		<path class="st0" d="M168.4,132c-1.6,0-2.9-0.4-4.3-1.5l1.2-1.6c0.9,0.7,2,1.1,3,1.1c1.4,0,1.9-0.6,1.9-1.3c0-1-1-1.2-2.5-1.6
			c-1.7-0.4-3.2-1.1-3.2-3.1c0-1.9,1.5-3.2,3.7-3.3c1.3,0,2.7,0.2,3.9,1l-0.9,1.7c-1-0.6-1.9-0.8-2.8-0.8c-0.9,0-1.7,0.4-1.7,1.3
			s0.9,1.2,2.4,1.5c2.3,0.5,3.4,1.5,3.4,3.2C172.5,130.9,170.7,132,168.4,132z"/>
		<path class="st0" d="M178.3,123v8.9h-2.2V123h-2.9v-2h7.9v2H178.3z"/>
		<path class="st0" d="M184.8,121v10.9h-2.2V121H184.8z"/>
		<path class="st0" d="M190.9,128.7l1.1-3.9l1.1-3.8h2.3l-3.5,10.9h-2.2l-3.5-10.9h2.3l1.2,3.9L190.9,128.7L190.9,128.7z"/>
		<path class="st0" d="M202,129.7h-3.8l-0.7,2.2h-2.3L199,121h2.2l3.8,10.9h-2.3L202,129.7z M198.8,127.9h2.6l-0.4-1.4l-0.9-2.9
			h-0.1l-0.8,2.8L198.8,127.9z"/>
		<path class="st0" d="M206.1,131.9V121h2.1v8.9h5.4v1.9H206.1z"/>
	</g>
</g>
</svg>
